<svg id="akb_logo" data-name="Ebene 1" xmlns="http://www.w3.org/2000/svg" viewBox="0 0 600 120">
	<defs>
		<style>.cls-1,.cls-2{fill:#1d1d1b;}.cls-2{fill-rule:evenodd;}.cls-3{fill:#009ee2;}</style>
	</defs>
	<title>logo_AKB</title>
	<polygon class="cls-1"
			 points="159.09 119.13 168.24 119.13 168.24 95.69 168.37 95.69 184.77 119.13 196.73 119.13 177.19 92.44 195.94 68.63 184.71 68.63 168.24 90.34 168.24 68.63 159.09 68.63 159.09 119.13 159.09 119.13"/>
	<path class="cls-2"
		  d="M205,92.15a16.58,16.58,0,0,1,10.39-4.05c5.16,0,7.58,2,7.58,8h-4.84c-3.66,0-8,.36-11.31,2.17s-5.75,5.06-5.75,10.63c0,7.09,5.82,11.07,11.76,11.07a11.82,11.82,0,0,0,10.39-6.44h.13a50.13,50.13,0,0,0,.39,5.57h7.71c-.2-2.89-.33-5.5-.39-8.32s-.13-5.57-.13-9.33V96.7c0-11-4.25-15.7-14.51-15.7a27.69,27.69,0,0,0-11.7,2.82l.26,8.32Zm4.44,16.21c0-5.72,5.82-6.44,9.74-6.44H223c0,2.89-.39,5.57-1.83,7.67a7.22,7.22,0,0,1-6.14,3.33c-3.14,0-5.56-1.37-5.56-4.56Z"/>
	<path class="cls-1"
		  d="M240.94,119.13h8.76V100.9c0-4.77,1.37-12.37,7.71-12.37,5.62,0,5.69,6.15,5.69,10.71v19.9h8.76V95.62c0-8.39-3.46-14.61-11.44-14.61a12.19,12.19,0,0,0-11,5.93h-.13V81.87h-8.3v37.26Z"/>
	<path class="cls-1"
		  d="M285.08,107.92c0,7.38,3.79,12.08,10.65,12.08a20.93,20.93,0,0,0,6.47-.87l-.26-7.67a7.22,7.22,0,0,1-4,1c-3.33,0-4.12-3-4.12-6.15V89h7.78V81.87h-7.78V71.31l-8.76,3.11v7.45h-6.47V89h6.47v19Z"/>
	<path class="cls-2"
		  d="M306.69,100.76c0,10.71,6.47,19.24,17.58,19.24s17.64-8.54,17.64-19.24c0-12.3-7.65-19.75-17.64-19.75s-17.58,7.45-17.58,19.75Zm9.15-1.16c0-5.57,2.74-11.07,8.43-11.07s8.5,5.35,8.5,11.07c0,6.22-1.77,12.88-8.5,12.88s-8.43-6.73-8.43-12.88Z"/>
	<path class="cls-1"
		  d="M350.11,119.13h8.76V100.9c0-4.77,1.37-12.37,7.71-12.37,5.62,0,5.69,6.15,5.69,10.71v19.9H381V95.62C381,87.23,377.56,81,369.59,81a12.19,12.19,0,0,0-11,5.93h-.13V81.87h-8.3v37.26Z"/>
	<path class="cls-2"
		  d="M393.14,92.15a16.57,16.57,0,0,1,10.39-4.05c5.16,0,7.58,2,7.58,8h-4.84c-3.66,0-8,.36-11.31,2.17s-5.75,5.06-5.75,10.63C389.22,116,395,120,401,120a11.82,11.82,0,0,0,10.39-6.44h.13a50.61,50.61,0,0,0,.39,5.57h7.71c-.2-2.89-.33-5.5-.39-8.32s-.13-5.57-.13-9.33V96.7c0-11-4.25-15.7-14.51-15.7a27.69,27.69,0,0,0-11.7,2.82l.26,8.32Zm4.44,16.21c0-5.72,5.82-6.44,9.74-6.44h3.79c0,2.89-.39,5.57-1.83,7.67a7.22,7.22,0,0,1-6.14,3.33c-3.14,0-5.55-1.37-5.55-4.56Z"/>
	<polygon class="cls-1" points="429.24 119.13 437.99 119.13 437.99 64.87 429.24 64.87 429.24 119.13 429.24 119.13"/>
	<path class="cls-2"
		  d="M457.2,100.39c0-5.21,2.22-11.87,7.84-11.87s7.25,6.87,7.25,11.87-1.63,12.08-7.39,12.08-7.71-6.8-7.71-12.08Zm-8.82,18.74h8.5v-4.56H457A11.88,11.88,0,0,0,467.33,120c10.33,0,14.12-9.4,14.12-19.61S477.65,81,467.33,81c-4.57,0-7.65,2.1-10.06,5.64h-.13V64.87h-8.76v54.26Z"/>
	<path class="cls-2"
		  d="M491.4,92.15a16.57,16.57,0,0,1,10.39-4.05c5.16,0,7.58,2,7.58,8h-4.84c-3.66,0-8,.36-11.31,2.17s-5.75,5.06-5.75,10.63c0,7.09,5.82,11.07,11.76,11.07a11.82,11.82,0,0,0,10.39-6.44h.13a50.72,50.72,0,0,0,.39,5.57h7.71c-.2-2.89-.33-5.5-.39-8.32s-.13-5.57-.13-9.33V96.7c0-11-4.25-15.7-14.51-15.7a27.69,27.69,0,0,0-11.7,2.82l.26,8.32Zm4.44,16.21c0-5.72,5.81-6.44,9.74-6.44h3.79c0,2.89-.39,5.57-1.83,7.67a7.22,7.22,0,0,1-6.14,3.33c-3.14,0-5.55-1.37-5.55-4.56Z"/>
	<path class="cls-1"
		  d="M527.3,119.13h8.76V100.9c0-4.77,1.37-12.37,7.71-12.37,5.62,0,5.69,6.15,5.69,10.71v19.9h8.76V95.62c0-8.39-3.46-14.61-11.44-14.61a12.19,12.19,0,0,0-11,5.93h-.13V81.87h-8.3v37.26Z"/>
	<polygon class="cls-1"
			 points="568.76 119.13 577.52 119.13 577.52 101.05 577.65 101.05 588.89 119.13 600 119.13 585.88 98.51 598.43 81.87 588.11 81.87 577.65 96.78 577.52 96.78 577.52 64.87 568.76 64.87 568.76 119.13 568.76 119.13"/>
	<path class="cls-2"
		  d="M182.9,27.78H172.24l5.28-16.67h.1l5.28,16.67ZM159.38,43.41H167l3.19-9.26h14.79l3.14,9.26h8.1L181.86,3H173.6l-14.22,40.4Z"/>
	<path class="cls-2"
		  d="M203.35,21.82a13.26,13.26,0,0,1,8.31-3.24c4.13,0,6.06,1.62,6.06,6.42h-3.87c-2.93,0-6.38.29-9,1.74s-4.6,4.05-4.6,8.51c0,5.67,4.65,8.85,9.41,8.85A9.45,9.45,0,0,0,217.94,39h.1a39.58,39.58,0,0,0,.31,4.46h6.17c-.16-2.32-.26-4.4-.31-6.66s-.1-4.46-.1-7.47V25.47c0-8.8-3.4-12.56-11.61-12.56a22.15,22.15,0,0,0-9.36,2.26l.21,6.66Zm3.55,13c0-4.57,4.65-5.15,7.79-5.15h3a10.69,10.69,0,0,1-1.46,6.13,5.77,5.77,0,0,1-4.91,2.66c-2.51,0-4.44-1.1-4.44-3.65Z"/>
	<path class="cls-1"
		  d="M232.77,43.41h7V32.47c0-4.28,0-12.15,5.7-12.15a6.55,6.55,0,0,1,3.14.64V13.14a6.93,6.93,0,0,0-2.14-.23c-4.18,0-7.06,4.69-7.37,7.47H239V13.6h-6.22V43.41Z"/>
	<path class="cls-2"
		  d="M266,37.39c-4,0-6-5-6-9,0-4.57,1.52-9.43,6.27-9.43,4.08,0,5.85,4.17,5.85,9.26s-1.78,9.2-6.17,9.2ZM272.5,13.6v4.05h-.1a8.73,8.73,0,0,0-8.26-4.75c-8.05,0-11.4,8.28-11.4,15.45,0,8,3,15,11,15a9.41,9.41,0,0,0,8.36-4.75h.1c0,5.15-.36,11.58-8.1,11.58-2.19,0-5.7-1.33-7.84-2.6l-.58,6.6a21.69,21.69,0,0,0,9.31,2c11.29,0,14.22-7.64,14.22-15.74V13.6Z"/>
	<path class="cls-2"
		  d="M289.43,21.82a13.26,13.26,0,0,1,8.31-3.24c4.13,0,6.06,1.62,6.06,6.42h-3.87c-2.93,0-6.38.29-9,1.74s-4.6,4.05-4.6,8.51c0,5.67,4.65,8.85,9.41,8.85A9.45,9.45,0,0,0,304,39h.1a39.91,39.91,0,0,0,.31,4.46h6.17c-.15-2.32-.26-4.4-.31-6.66s-.1-4.46-.1-7.47V25.47c0-8.8-3.4-12.56-11.61-12.56a22.15,22.15,0,0,0-9.36,2.26l.21,6.66Zm3.56,13c0-4.57,4.65-5.15,7.79-5.15h3a10.68,10.68,0,0,1-1.46,6.13,5.77,5.77,0,0,1-4.91,2.66c-2.51,0-4.44-1.1-4.44-3.65Z"/>
	<path class="cls-1"
		  d="M343.42,13.6h-7V28.19c0,3.82-1.1,9.9-6.17,9.9-4.5,0-4.55-4.92-4.55-8.57V13.6h-7V32.41c0,6.71,2.77,11.69,9.15,11.69a10.88,10.88,0,0,0,8.84-4.75h.1v4.05h6.64V13.6Z"/>
	<path class="cls-2" d="M352.4,43.41h7V13.6h-7V43.41Zm0-35.25h7V.75h-7V8.16Z"/>
	<path class="cls-1"
		  d="M384.72,14a29.35,29.35,0,0,0-7.63-1.1c-5.49,0-10.56,2.84-10.56,9.26,0,10.76,12.18,6.77,12.18,12.62,0,2.89-2.82,3.65-4.6,3.65a14.23,14.23,0,0,1-6.9-2l-.42,6.37a28.6,28.6,0,0,0,7.95,1.27c5.7,0,11.29-2.78,11.29-9.72,0-10.76-12.18-7.76-12.18-12.5,0-2.55,2.25-3.3,4.13-3.3a15.74,15.74,0,0,1,6.27,1.27l.47-5.85Z"/>
	<path class="cls-1"
		  d="M411.11,13.89a20.77,20.77,0,0,0-6.8-1c-8.42,0-13,6.83-13,15.45,0,9.09,4.44,15.74,13.28,15.74a20.8,20.8,0,0,0,7-1l-.31-6.43a13.67,13.67,0,0,1-5.38,1.39c-4.91,0-7.27-4.22-7.27-9.72s2.77-9.43,7.11-9.43a9.73,9.73,0,0,1,4.76,1.1l.63-6.13Z"/>
	<path class="cls-1"
		  d="M417.78,43.41h7V28.82c0-3.82,1.1-9.9,6.17-9.9,4.5,0,4.55,4.92,4.55,8.57V43.41h7V24.6c0-6.71-2.77-11.69-9.15-11.69a9.76,9.76,0,0,0-8.47,4.75h-.1V0h-7V43.41Z"/>
	<path class="cls-2"
		  d="M456.3,25.58c.31-4,2.3-7,6.22-7s5.49,3.24,5.7,7Zm16.62,9.84a16.93,16.93,0,0,1-8.94,3c-4.34,0-7.37-2.72-7.69-7.52h18.61c0-10.42-2.82-18-12.81-18-8.37,0-12.5,7.12-12.5,15.74,0,9.78,5.18,15.45,14.06,15.45a17.07,17.07,0,0,0,9.25-2.37V35.42Z"/>
	<path class="cls-3" d="M116.7,119.12H0V2.86H116.7ZM3.91,115.23H112.79V6.75H3.91Z"/>
	<polygon class="cls-3"
			 points="105.14 13.02 52.39 13.02 22.86 61.05 52.39 108.85 105.14 108.85 75.62 61.05 105.14 13.02 105.14 13.02"/>
	<path class="cls-3"
		  d="M107.5,110.16H51.65L21.31,61,51.65,11.71h55.85L77.16,61Zm-54.38-2.62h49.67L74.07,61l28.72-46.71H53.12L24.41,61Z"/>
</svg>