<svg width="104" height="60" viewBox="0 0 104 60" fill="none" xmlns="http://www.w3.org/2000/svg">
<g clip-path="url(#clip0_3879_5383)">
<path d="M0.486328 53.8428H1.96412L3.00576 58.3196H3.02116L4.05254 53.8428H5.49442V59.88H4.59646V54.8586H4.58106L3.39062 59.88H2.59527L1.3997 54.8586H1.3843V59.88H0.486328V53.8428Z" fill="black"/>
<path d="M10.9502 56.8368C10.9502 54.8052 10.5038 54.4491 9.93937 54.4491C9.37495 54.4491 8.92852 54.8052 8.92852 56.8368C8.92852 58.8684 9.37495 59.2715 9.93937 59.2715C10.5038 59.2715 10.9502 58.9103 10.9502 56.8368ZM7.98438 56.863C7.98438 54.7058 8.5796 53.7266 9.93937 53.7266C11.2992 53.7266 11.8944 54.7058 11.8944 56.863C11.8944 59.0203 11.2992 59.9994 9.93937 59.9994C8.5796 59.9994 7.98438 59.0203 7.98438 56.863Z" fill="black"/>
<path d="M15.3328 59.1521H16.1128C16.8927 59.1521 17.216 58.6285 17.216 56.8588C17.216 55.089 16.9337 54.5654 16.1128 54.5654H15.3328V59.1521ZM14.3887 53.8428H16.0717C17.9292 53.8428 18.1601 55.0785 18.1601 56.864C18.1601 58.6496 17.9292 59.8852 16.0717 59.8852H14.3887V53.848V53.8428Z" fill="black"/>
<path d="M21.5243 53.8428V58.173C21.5243 58.9428 21.8219 59.2726 22.3966 59.2726C22.9713 59.2726 23.2586 58.9428 23.2586 58.173V53.8428H24.2027V58.0945C24.2027 59.4925 23.5254 60.0004 22.3966 60.0004C21.2677 60.0004 20.5801 59.4925 20.5801 58.0945V53.8428H21.5243Z" fill="black"/>
<path d="M26.6504 53.8428H27.5945V59.0684H29.8831V59.88H26.6504V53.8428Z" fill="black"/>
<path d="M34.4715 57.6337L33.7942 54.6544H33.7789L33.0758 57.6337H34.4766H34.4715ZM33.2093 53.8428H34.4202L35.9801 59.88H34.9948L34.6306 58.3982H32.8962L32.5165 59.88H31.5312L33.2143 53.8428H33.2093Z" fill="black"/>
<path d="M39.7453 56.5341C40.3507 56.5341 40.6894 56.1624 40.6894 55.555C40.6894 54.9109 40.4226 54.5758 39.7966 54.5758H38.991V56.5394H39.7453V56.5341ZM38.0469 53.8428H40.1353C40.9614 53.8428 41.6335 54.2721 41.6335 55.398C41.6335 56.1781 41.3001 56.775 40.6483 56.8797V56.8954C41.2435 56.953 41.5411 57.2829 41.5771 58.1312C41.5874 58.529 41.5874 58.995 41.6079 59.3564C41.6335 59.6548 41.767 59.7857 41.8901 59.88H40.8229C40.7305 59.77 40.6894 59.5816 40.6638 59.3458C40.6483 59.1678 40.6381 58.9794 40.6381 58.8066C40.6381 58.6338 40.6278 58.4244 40.6227 58.2045C40.597 57.5446 40.3969 57.2568 39.7606 57.2568H38.991V59.88H38.0469V53.8428Z" fill="black"/>
<path d="M44.1543 53.8428H47.3563V54.6544H45.0984V56.33H47.2228V57.1416H45.0984V59.0684H47.423V59.88H44.1543V53.8428Z" fill="black"/>
<path d="M56.3661 59.1774H56.3506C56.0941 59.7428 55.7554 59.9994 55.0575 59.9994C53.7645 59.9994 53.3027 59.0203 53.3027 56.863C53.3027 54.7058 53.8979 53.7266 55.2679 53.7266C56.7509 53.7266 57.0023 54.9204 57.0023 55.4702V55.5802H56.1095V55.4388C56.1095 54.9884 55.9247 54.4596 55.2782 54.4596C54.6317 54.4596 54.2519 54.9151 54.2519 56.8472C54.2519 58.7794 54.565 59.282 55.2063 59.282C55.9299 59.2926 56.1915 58.7584 56.1915 57.439H55.1961V56.7111H57.0845V59.8894H56.3711V59.1878L56.3661 59.1774Z" fill="black"/>
<path d="M59.5469 53.8428H62.7435V54.6544H60.491V56.33H62.6102V57.1416H60.491V59.0684H62.8103V59.88H59.5469V53.8428Z" fill="black"/>
<path d="M67.0707 59.1521C67.6351 59.1521 67.943 58.7857 67.943 58.084C67.943 57.4348 67.5684 57.0577 67.0143 57.0577H66.1368V59.1469H67.0758L67.0707 59.1521ZM66.8808 56.3876C67.4504 56.3876 67.7531 56.0053 67.7531 55.4293C67.7531 54.712 67.3324 54.5654 66.7987 54.5654H66.1368V56.3822H66.8808V56.3876ZM65.1875 53.8428H67.1015C67.9892 53.8428 68.6922 54.246 68.6922 55.3037C68.6922 56.0314 68.3996 56.487 67.8199 56.6756V56.6912C68.4664 56.8117 68.882 57.2044 68.882 58.2306C68.882 59.2569 68.1688 59.88 67.0604 59.88H65.1875V53.8428Z" fill="black"/>
<path d="M73.2744 52.3711H74.0697V53.2822H73.2744V52.3711ZM73.6745 57.6334L72.9972 54.654H72.9818L72.2789 57.6334H73.6797H73.6745ZM71.8992 52.3711H72.6945V53.2822H71.8992V52.3711ZM72.4122 53.8424H73.6232L75.1832 59.8796H74.198L73.8336 58.3978H72.0993L71.7196 59.8796H70.7344L72.4174 53.8424H72.4122Z" fill="black"/>
<path d="M78.118 53.8428V58.173C78.118 58.9428 78.4156 59.2726 78.9902 59.2726C79.5649 59.2726 79.8522 58.9428 79.8522 58.173V53.8428H80.7965V58.0945C80.7965 59.4925 80.1192 60.0004 78.9902 60.0004C77.8614 60.0004 77.1738 59.4925 77.1738 58.0945V53.8428H78.118Z" fill="black"/>
<path d="M84.3016 59.1521H85.0816C85.8614 59.1521 86.1848 58.6285 86.1848 56.8588C86.1848 55.089 85.9025 54.5654 85.0816 54.5654H84.3016V59.1521ZM83.3574 53.8428H85.0405C86.898 53.8428 87.1289 55.0785 87.1289 56.864C87.1289 58.6496 86.898 59.8852 85.0405 59.8852H83.3574V53.848V53.8428Z" fill="black"/>
<path d="M89.6172 53.8428H92.8191V54.6544H90.5613V56.33H92.6857V57.1416H90.5613V59.0684H92.8857V59.88H89.6172V53.8428Z" fill="black"/>
<path d="M104 47.9256H0V0H104V47.9256Z" fill="#006D3E"/>
<path d="M34.3838 45.3598H2.51367V2.56543H34.3838V45.3598Z" fill="white"/>
<path d="M15.5995 36.2754L13.8446 31.0551H13.8035L11.9871 36.2754H15.5995ZM15.425 27.5469L20.6383 41.7733H17.457L16.3999 38.6055H11.1866L10.0936 41.7733H7.00977L12.2847 27.5469H15.4302H15.425Z" fill="#006D3E"/>
<path d="M24.9181 27.5469V39.1447H31.7119V41.7733H21.8496V27.5469H24.9181Z" fill="#006D3E"/>
<path d="M40.5002 27.5469V33.0029H46.1446V27.5469H49.2079V41.7733H46.1446V35.6366H40.5002V41.7733H37.4316V27.5469H40.5002Z" fill="white"/>
<path d="M54.5713 36.464C54.7098 37.0295 54.9254 37.5374 55.223 37.9876C55.5206 38.438 55.9106 38.7992 56.3929 39.0715C56.8753 39.3438 57.4602 39.4799 58.1478 39.4799C58.8354 39.4799 59.4254 39.3438 59.9078 39.0715C60.3901 38.7992 60.7801 38.438 61.0777 37.9876C61.3753 37.5374 61.5959 37.0295 61.7294 36.464C61.8679 35.8984 61.9346 35.3172 61.9346 34.7203C61.9346 34.1235 61.8679 33.4899 61.7294 32.9087C61.5909 32.3223 61.3753 31.8039 61.0777 31.3431C60.7801 30.8823 60.385 30.5211 59.9078 30.2488C59.4254 29.9764 58.8405 29.8403 58.1478 29.8403C57.455 29.8403 56.8701 29.9764 56.3929 30.2488C55.9106 30.5211 55.5206 30.8876 55.223 31.3431C54.9254 31.8039 54.7047 32.3223 54.5713 32.9087C54.4327 33.4951 54.3661 34.0972 54.3661 34.7203C54.3661 35.3435 54.4327 35.8984 54.5713 36.464ZM51.7697 31.762C52.0826 30.851 52.529 30.0603 53.1191 29.3796C53.7041 28.7042 54.4225 28.17 55.2794 27.7878C56.1311 27.4003 57.0907 27.2119 58.1581 27.2119C59.2253 27.2119 60.2002 27.4056 61.0469 27.7878C61.8935 28.1752 62.6069 28.7042 63.1969 29.3796C63.7818 30.0551 64.2334 30.851 64.5465 31.762C64.8594 32.6731 65.0134 33.6575 65.0134 34.7203C65.0134 35.7832 64.8594 36.7206 64.5465 37.6211C64.2334 38.5166 63.787 39.2967 63.1969 39.9616C62.6069 40.6267 61.8935 41.145 61.0469 41.5272C60.2002 41.9043 59.2355 42.0927 58.1581 42.0927C57.0805 42.0927 56.1311 41.9043 55.2794 41.5272C54.4277 41.1503 53.7093 40.6267 53.1191 39.9616C52.5342 39.2967 52.0826 38.5166 51.7697 37.6211C51.4566 36.7258 51.3027 35.7571 51.3027 34.7203C51.3027 33.6836 51.4618 32.6731 51.7697 31.762Z" fill="white"/>
</g>
<defs>
<clipPath id="clip0_3879_5383">
<rect width="104" height="60.0004" fill="white"/>
</clipPath>
</defs>
</svg>
