<svg xmlns="http://www.w3.org/2000/svg" width="98.009" height="89.552"><path data-name="Pfad 58" d="M49.006 32.542a1.846 1.846 0 0 1 1.3.542v-.008l9.448 9.452a6.74 6.74 0 1 0 9.529-9.535l-9.45-9.456h.008a1.809 1.809 0 0 1-.536-1.292h-1.526a1.83 1.83 0 0 1-.514 1.274l-3.493 3.494-3.494 3.492a1.833 1.833 0 0 1-2.551 0v.006l-3.49-3.5-3.493-3.494h.006a1.81 1.81 0 0 1-.516-1.271h-1.521a1.827 1.827 0 0 1-.536 1.292l-9.455 9.452a6.742 6.742 0 0 0 9.536 9.532l9.452-9.449a1.846 1.846 0 0 1 1.293-.536" fill="#f49e00"/><path data-name="Pfad 59" d="M57.782 22.247a1.834 1.834 0 0 0-.515-1.275l-3.49-3.488-3.491-3.488a1.859 1.859 0 0 0-1.28-.516 1.838 1.838 0 0 0-1.275.516v-.006l-3.491 3.5-3.492 3.487h.006a1.842 1.842 0 0 0-.519 1.273h-1.522a1.824 1.824 0 0 0-.536-1.292l-9.446-9.45a6.74 6.74 0 1 1 9.528-9.535l9.452 9.452a1.833 1.833 0 0 0 1.294.539 1.858 1.858 0 0 0 1.3-.539l9.45-9.45a6.742 6.742 0 1 1 9.534 9.535l-9.454 9.45a1.811 1.811 0 0 0-.533 1.292Z" fill="#e2001a"/><path data-name="Pfad 66" d="M17.622 89.474v-7.915h5.214v1.378h-3.665v1.857h3.124v1.38h-3.124v1.924h3.669v1.376Z" fill="#f49e00"/><path data-name="Pfad 67" d="m31.217 89.474-1.547-3.157h-1.112v3.157h-1.544V81.56h3.1a2.391 2.391 0 0 1 2.568 2.422 2.133 2.133 0 0 1-1.444 2.08l1.768 3.412Zm-1.2-6.537h-1.459v2.091h1.457a1.048 1.048 0 1 0 0-2.091" fill="#f49e00"/><path data-name="Pfad 68" d="M41.833 88.641a2.971 2.971 0 0 1-2.234.9 2.893 2.893 0 0 1-2.134-.868 2.282 2.282 0 0 1-.646-1.188 14.752 14.752 0 0 1 0-3.936 2.248 2.248 0 0 1 .646-1.189 2.9 2.9 0 0 1 2.134-.867 2.836 2.836 0 0 1 2.98 2.534h-1.558a1.347 1.347 0 0 0-1.422-1.157 1.261 1.261 0 0 0-.99.422c-.289.368-.378.656-.378 2.223s.067 1.869.378 2.235a1.218 1.218 0 0 0 .99.412 1.428 1.428 0 0 0 1.1-.445 1.551 1.551 0 0 0 .356-1.055v-.3h-1.456v-1.293h2.99v1.156a3.166 3.166 0 0 1-.756 2.412" fill="#f49e00"/><path data-name="Pfad 69" d="M48.874 89.541a3.722 3.722 0 0 1-2.891-1.044l1-1a2.581 2.581 0 0 0 1.912.668c.912 0 1.4-.346 1.4-.979a.882.882 0 0 0-.245-.667 1.176 1.176 0 0 0-.7-.278l-.956-.134a2.68 2.68 0 0 1-1.534-.655 2.1 2.1 0 0 1-.566-1.556c0-1.413 1.045-2.4 2.755-2.4a3.393 3.393 0 0 1 2.559.922l-.98.967a2.2 2.2 0 0 0-1.622-.545c-.822 0-1.222.455-1.222 1a.763.763 0 0 0 .234.566 1.354 1.354 0 0 0 .733.312l.934.133a2.62 2.62 0 0 1 1.513.612 2.22 2.22 0 0 1 .611 1.678c0 1.534-1.279 2.4-2.934 2.4" fill="#f49e00"/><path data-name="Pfad 70" d="M58.998 86.493h-1.521v2.98H55.93v-7.914h3.068a2.471 2.471 0 1 1 0 4.934m-.078-3.557h-1.444v2.169h1.444a1.086 1.086 0 1 0 0-2.169" fill="#f49e00"/><path data-name="Pfad 71" d="M70.368 88.669a3.074 3.074 0 0 1-4.281 0c-.8-.8-.778-1.79-.778-3.157s-.022-2.356.778-3.156a3.077 3.077 0 0 1 4.281 0c.8.8.789 1.789.789 3.156s.01 2.358-.789 3.157m-1.145-5.38a1.286 1.286 0 0 0-.991-.422 1.3 1.3 0 0 0-1 .422c-.3.334-.379.7-.379 2.223s.078 1.889.379 2.225a1.3 1.3 0 0 0 1 .422 1.286 1.286 0 0 0 .991-.422c.3-.336.388-.7.388-2.225s-.087-1.889-.388-2.223" fill="#f49e00"/><path data-name="Pfad 72" d="m79.603 89.474-1.547-3.157h-1.112v3.157H75.4V81.56h3.1a2.391 2.391 0 0 1 2.568 2.422 2.132 2.132 0 0 1-1.445 2.08l1.768 3.412Zm-1.2-6.537h-1.457v2.091h1.457a1.048 1.048 0 1 0 0-2.091" fill="#f49e00"/><path data-name="Pfad 73" d="M88.357 82.936v6.538h-1.544v-6.537h-2.069V81.56h5.677v1.377Z" fill="#f49e00"/><path data-name="Pfad 65" d="M10.957 89.474H7.643v-7.915h3.18a2.162 2.162 0 0 1 2.446 2.224 1.83 1.83 0 0 1-.979 1.633 1.839 1.839 0 0 1 1.088 1.779 2.188 2.188 0 0 1-2.421 2.279m-.256-6.537H9.19v1.823h1.507a.917.917 0 1 0 0-1.823m.1 3.212H9.186v1.946h1.611a.975.975 0 1 0 0-1.946" fill="#f49e00"/><path data-name="Rechteck 37" fill="#e2001a" d="M16.999 57.271h2.86v3.219h-2.86z"/><path data-name="Rechteck 38" fill="#e2001a" d="M31.319 57.271h2.859v3.219h-2.859z"/><path data-name="Pfad 61" d="m29.963 75.619-1.082-3.246h-6.518l-1.107 3.246h-3.735l6.671-18.34H27l6.7 18.34Zm-4.275-12.932-2.319 6.673h4.56Z" fill="#e2001a"/><path data-name="Pfad 62" d="M44.403 75.773a6.754 6.754 0 0 1-4.945-2.008c-1.854-1.854-1.8-4.148-1.8-7.315s-.052-5.461 1.8-7.315a6.76 6.76 0 0 1 4.945-2.01 6.472 6.472 0 0 1 6.754 5.8h-3.631a3.037 3.037 0 0 0-3.093-2.6 2.967 2.967 0 0 0-2.292.953c-.7.775-.9 1.65-.9 5.178s.205 4.4.9 5.177a2.962 2.962 0 0 0 2.292.951 3.033 3.033 0 0 0 3.093-2.6h3.636a6.486 6.486 0 0 1-6.754 5.794" fill="#e2001a"/><path data-name="Pfad 63" d="M66.612 75.619v-7.675h-6.208v7.675h-3.581V57.281h3.581v7.5h6.208v-7.5h3.58v18.338Z" fill="#e2001a"/><path data-name="Pfad 64" d="M77.041 75.619V57.281h3.58v15.144h8.32v3.194Z" fill="#e2001a"/><path data-name="Rechteck 36" fill="#e2001a" d="M94.429 57.279h3.58v18.338h-3.58z"/><path data-name="Pfad 60" d="M7.676 75.617H0V57.279h7.366c3.582 0 5.667 2.009 5.667 5.152a4.24 4.24 0 0 1-2.267 3.785 4.259 4.259 0 0 1 2.524 4.12c0 3.427-2.343 5.281-5.614 5.281m-.594-15.145h-3.5v4.224h3.5a2.126 2.126 0 1 0 0-4.224m.233 7.444H3.58v4.508h3.735a2.258 2.258 0 1 0 0-4.508" fill="#e2001a"/></svg>
