<?xml version="1.0" encoding="UTF-8"?><svg id="Logo" xmlns="http://www.w3.org/2000/svg" width="1000" height="217" viewBox="0 0 1000 217"><defs><style>.cls-1{fill:#01bba8;stroke-width:0px;}</style></defs><polygon class="cls-1" points="472.35 212.47 507.97 212.47 565.01 4.53 529.39 4.53 472.35 212.47"/><path class="cls-1" d="M100.8,94.16l-32.29-6.34c-16-3.32-24.14-13.58-24.14-26.56,0-16,15.69-29.88,36.82-29.88,22.65,0,37.05,13.24,42.35,30.72l31.29-8.99C150.3,29.88,128.57,0,80.88,0,42.25,0,9.05,28.97,9.05,63.68c0,31.39,21.13,52.21,52.82,58.55l31.69,6.04c17.81,3.92,27.77,14.79,27.77,28.37,0,16-13.88,28.67-38.93,28.67-29.88,0-45.87-21.13-49.8-41.35L0,153.32c3.32,29.88,29.58,63.68,82.39,63.68,47.38,0,74.85-30.78,74.85-63.08,0-29.28-19.62-52.51-56.44-59.76Z"/><path class="cls-1" d="M399.69,142.45c-.87,3.39-3.32,4.83-6.04,4.83s-5.09-1.5-6.04-4.53L344.15,4.53h-40.74l-43.16,137.62c-.96,3-3.32,4.53-5.73,4.53-2.72,0-5.23-1.8-6.04-4.83L211.96,4.53h-36.82l57.34,207.95h40.44l44.97-144.26c.93-3.03,3.32-4.53,5.73-4.53s4.8,1.52,5.73,4.53l44.97,144.26h40.44L471.82,4.53h-36.52l-35.61,137.93Z"/><path class="cls-1" d="M689.85,183.2c-35.61,0-68.81-25.65-68.81-74.55s34.1-75.45,68.51-75.45c32.29,0,50.7,17.51,61.57,46.18l32.6-10.26C771.34,31.39,741.16,0,689.55,0s-104.73,41.05-104.73,108.65,48.89,108.35,105.03,108.35c53.12,0,83.9-35.31,94.77-70.32l-31.99-9.66c-8.75,22.64-27.77,46.18-62.78,46.18Z"/><path class="cls-1" d="M921.53,4.53h-45.57l-78.47,207.95h37.12l16.3-44.67c.78-2.11,2.72-3.62,5.13-3.62h84.2c2.41,0,4.36,1.49,5.13,3.62l16.3,44.67h38.33L921.53,4.53ZM926.36,131.89h-56.44c-2.99-.01-4.89-3.09-3.92-5.73l26.86-74.24c.97-2.68,3.02-3.92,5.13-3.92s4.15,1.25,5.13,3.92l27.16,74.24c.98,2.68-.91,5.73-3.92,5.73Z"/></svg>