<?xml version="1.0" encoding="UTF-8" standalone="no"?>
<!-- Created with Inkscape (http://www.inkscape.org/) -->
<svg
   xmlns:svg="http://www.w3.org/2000/svg"
   xmlns="http://www.w3.org/2000/svg"
   version="1.0"
   width="715.98999"
   height="143.73"
   id="svg2">
  <defs
     id="defs4">
    <clipPath
       id="clipPath2548">
      <path
         d="M 0.008972,898.578 L 1247.247,898.578 L 1247.247,0 L 0.008972,0 L 0.008972,898.578 z"
         id="path2550" />
    </clipPath>
    <clipPath
       id="clipPath2542">
      <path
         d="M -0.12201,898.291 L 1247.122,898.291 L 1247.122,-0.291 L -0.12201,-0.291 L -0.12201,898.291 z"
         id="path2544" />
    </clipPath>
    <clipPath
       id="clipPath2514">
      <path
         d="M 0.008972,898.578 L 1247.247,898.578 L 1247.247,0 L 0.008972,0 L 0.008972,898.578 z"
         id="path2516" />
    </clipPath>
    <clipPath
       id="clipPath2508">
      <path
         d="M -0.12201,898.291 L 1247.122,898.291 L 1247.122,-0.291 L -0.12201,-0.291 L -0.12201,898.291 z"
         id="path2510" />
    </clipPath>
    <clipPath
       id="clipPath2502">
      <path
         d="M 910.216,873.212 L 1222.027,873.212 L 1222.027,701.496 L 910.216,701.496 L 910.216,873.212 z"
         id="path2504" />
    </clipPath>
    <clipPath
       id="clipPath2496">
      <path
         d="M 1172.496,823.316 L 935.704,823.316 L 935.704,781.221 L 1172.496,781.221 L 1172.496,823.316 z"
         id="path2498" />
    </clipPath>
    <clipPath
       id="clipPath2482">
      <path
         d="M 0.008972,898.578 L 1247.247,898.578 L 1247.247,0 L 0.008972,0 L 0.008972,898.578 z"
         id="path2484" />
    </clipPath>
    <clipPath
       id="clipPath2476">
      <path
         d="M -0.12201,898.291 L 1247.122,898.291 L 1247.122,-0.291 L -0.12201,-0.291 L -0.12201,898.291 z"
         id="path2478" />
    </clipPath>
    <clipPath
       id="clipPath2464">
      <path
         d="M 0.008972,898.578 L 1247.247,898.578 L 1247.247,0 L 0.008972,0 L 0.008972,898.578 z"
         id="path2466" />
    </clipPath>
    <clipPath
       id="clipPath2458">
      <path
         d="M -0.12201,898.291 L 1247.122,898.291 L 1247.122,-0.291 L -0.12201,-0.291 L -0.12201,898.291 z"
         id="path2460" />
    </clipPath>
    <clipPath
       id="clipPath2446">
      <path
         d="M 0.008972,898.578 L 1247.247,898.578 L 1247.247,0 L 0.008972,0 L 0.008972,898.578 z"
         id="path2448" />
    </clipPath>
    <clipPath
       id="clipPath2440">
      <path
         d="M -0.12201,898.291 L 1247.122,898.291 L 1247.122,-0.291 L -0.12201,-0.291 L -0.12201,898.291 z"
         id="path2442" />
    </clipPath>
    <clipPath
       id="clipPath2434">
      <path
         d="M 623.5,878.449 L 1227.277,878.449 L 1227.277,19.551 L 623.5,19.551 L 623.5,878.449 z"
         id="path2436" />
    </clipPath>
    <clipPath
       id="clipPath2424">
      <path
         d="M 0.008972,898.578 L 1247.247,898.578 L 1247.247,0 L 0.008972,0 L 0.008972,898.578 z"
         id="path2426" />
    </clipPath>
    <clipPath
       id="clipPath2418">
      <path
         d="M -0.12201,898.291 L 1247.122,898.291 L 1247.122,-0.291 L -0.12201,-0.291 L -0.12201,898.291 z"
         id="path2420" />
    </clipPath>
  </defs>
  <g
     transform="translate(-17.71932,-86.052793)"
     id="layer1">
    <g
       transform="matrix(2.9392463,0,0,-2.9392463,-2722.5452,2515.9825)"
       id="g2492">
      <g
         clip-path="url(#clipPath2496)"
         id="g2494">
        <g
           clip-path="url(#clipPath2502)"
           id="g2500">
          <g
             clip-path="url(#clipPath2508)"
             id="g2506">
            <g
               clip-path="url(#clipPath2514)"
               id="g2512">
              <path
                 d="M 939.063,811.581 L 938.241,788.841 L 947.283,784.184 L 960.981,785.554 L 968.378,790.485 L 970.57,788.293 L 972.488,784.184 L 979.885,784.458 L 987.556,794.047 L 994.406,785.554 L 1022.351,784.184 L 1025.091,788.293 L 1038.515,784.184 L 1049.748,786.649 L 1052.762,788.841 L 1059.063,785.554 L 1073.31,784.458 L 1082.077,788.841 L 1083.173,784.732 L 1109.748,784.732 L 1111.118,788.567 L 1117.146,784.458 L 1129.749,784.458 L 1137.968,790.485 L 1145.638,785.554 L 1157.42,784.184 L 1167.556,788.293 L 1169.749,797.06 L 1166.735,804.732 L 1167.282,817.334 L 1156.871,821.17 L 1145.09,818.156 L 1139.337,811.581 L 1131.94,818.704 L 1119.063,820.074 L 1108.104,812.403 L 1106.46,801.444 L 1107.008,797.334 L 1096.871,797.334 L 1097.146,820.348 L 1083.995,820.348 L 1081.529,816.513 L 1072.488,820.348 L 1062.077,818.978 L 1054.68,815.417 L 1046.734,819.526 L 1036.598,819.8 L 1026.46,815.417 L 1023.447,814.869 L 1023.447,820.074 L 995.776,820.348 L 993.31,812.951 L 981.255,812.677 L 980.433,820.348 L 967.283,820.074 L 963.721,818.43 L 953.036,820.622 L 943.447,817.334 L 939.063,811.581"
                 id="path2518"
                 style="fill:#ffffff;fill-opacity:1;fill-rule:nonzero;stroke:none" />
              <path
                 d="M 941.313,798.131 C 945.614,795.115 950.904,793.582 953.524,793.582 C 955.749,793.582 957.479,794.077 957.479,795.807 C 957.479,797.488 956.194,797.933 952.733,798.971 C 947.147,800.652 941.56,802.481 941.56,808.76 C 941.56,813.605 946.01,817.46 953.574,817.46 C 957.183,817.46 960.248,816.62 963.313,815.433 L 963.313,808.463 C 959.852,809.847 956.886,810.638 953.623,810.638 C 951.25,810.638 950.212,810.045 950.212,808.809 C 950.212,807.524 951.547,807.078 954.266,806.189 C 959.852,804.36 966.18,802.234 966.18,795.807 C 966.18,790.567 961.533,786.81 953.574,786.81 C 948.086,786.81 944.082,788.688 941.313,790.319 L 941.313,798.131"
                 id="path2520"
                 style="fill:#ffffff;fill-opacity:1;fill-rule:nonzero;stroke:none" />
              <path
                 d="M 985.312,810.539 L 990.156,810.539 L 995.743,800.751 L 997.621,816.966 L 1005.284,816.966 L 1001.626,787.304 L 995.397,787.304 L 987.734,800.701 L 980.071,787.304 L 973.842,787.304 L 970.184,816.966 L 977.846,816.966 L 979.725,800.751 L 985.312,810.539"
                 id="path2522"
                 style="fill:#ffffff;fill-opacity:1;fill-rule:nonzero;stroke:none" />
              <path
                 d="M 1012.154,787.304 L 1020.1628,787.304 L 1020.1628,816.967 L 1012.154,816.967 L 1012.154,787.304 z"
                 id="path2524"
                 style="fill:#ffffff;fill-opacity:1;fill-rule:nonzero;stroke:none" />
              <path
                 d="M 1026.837,798.131 C 1031.138,795.115 1036.428,793.582 1039.048,793.582 C 1041.273,793.582 1043.003,794.077 1043.003,795.807 C 1043.003,797.488 1041.718,797.933 1038.257,798.971 C 1032.671,800.652 1027.084,802.481 1027.084,808.76 C 1027.084,813.605 1031.534,817.46 1039.097,817.46 C 1042.706,817.46 1045.772,816.62 1048.837,815.433 L 1048.837,808.463 C 1045.376,809.847 1042.41,810.638 1039.147,810.638 C 1036.774,810.638 1035.736,810.045 1035.736,808.809 C 1035.736,807.524 1037.071,807.078 1039.79,806.189 C 1045.376,804.36 1051.704,802.234 1051.704,795.807 C 1051.704,790.567 1047.057,786.81 1039.097,786.81 C 1033.61,786.81 1029.606,788.688 1026.837,790.319 L 1026.837,798.131"
                 id="path2526"
                 style="fill:#ffffff;fill-opacity:1;fill-rule:nonzero;stroke:none" />
              <path
                 d="M 1055.511,798.131 C 1059.812,795.115 1065.102,793.582 1067.722,793.582 C 1069.947,793.582 1071.677,794.077 1071.677,795.807 C 1071.677,797.488 1070.392,797.933 1066.931,798.971 C 1061.345,800.652 1055.758,802.481 1055.758,808.76 C 1055.758,813.605 1060.207,817.46 1067.771,817.46 C 1071.38,817.46 1074.446,816.62 1077.511,815.433 L 1077.511,808.463 C 1074.05,809.847 1071.084,810.638 1067.821,810.638 C 1065.448,810.638 1064.41,810.045 1064.41,808.809 C 1064.41,807.524 1065.745,807.078 1068.464,806.189 C 1074.05,804.36 1080.378,802.234 1080.378,795.807 C 1080.378,790.567 1075.731,786.81 1067.771,786.81 C 1062.284,786.81 1058.28,788.688 1055.511,790.319 L 1055.511,798.131"
                 id="path2528"
                 style="fill:#ffffff;fill-opacity:1;fill-rule:nonzero;stroke:none" />
              <path
                 d="M 1106.477,794.027 L 1106.477,787.304 L 1085.911,787.304 L 1085.911,816.966 L 1093.921,816.966 L 1093.921,794.027 L 1106.477,794.027"
                 id="path2530"
                 style="fill:#ffffff;fill-opacity:1;fill-rule:nonzero;stroke:none" />
              <path
                 d="M 1123.136,810.984 C 1118.489,810.984 1117.303,807.573 1117.303,802.135 C 1117.303,796.647 1118.489,793.236 1123.136,793.236 C 1127.783,793.236 1128.97,796.647 1128.97,802.135 C 1128.97,807.573 1127.783,810.984 1123.136,810.984 z M 1123.136,786.81 C 1112.903,786.81 1109.293,793.039 1109.293,802.135 C 1109.293,811.232 1112.903,817.46 1123.136,817.46 C 1133.37,817.46 1136.979,811.232 1136.979,802.135 C 1136.979,793.039 1133.37,786.81 1123.136,786.81"
                 id="path2532"
                 style="fill:#ffffff;fill-opacity:1;fill-rule:nonzero;stroke:none" />
              <path
                 d="M 1141.774,798.131 C 1146.074,795.115 1151.365,793.582 1153.985,793.582 C 1156.209,793.582 1157.94,794.077 1157.94,795.807 C 1157.94,797.488 1156.655,797.933 1153.194,798.971 C 1147.607,800.652 1142.021,802.481 1142.021,808.76 C 1142.021,813.605 1146.47,817.46 1154.034,817.46 C 1157.643,817.46 1160.708,816.62 1163.773,815.433 L 1163.773,808.463 C 1160.313,809.847 1157.346,810.638 1154.084,810.638 C 1151.71,810.638 1150.673,810.045 1150.673,808.809 C 1150.673,807.524 1152.007,807.078 1154.727,806.189 C 1160.313,804.36 1166.64,802.234 1166.64,795.807 C 1166.64,790.567 1161.994,786.81 1154.034,786.81 C 1148.546,786.81 1144.542,788.688 1141.774,790.319 L 1141.774,798.131"
                 id="path2534"
                 style="fill:#ffffff;fill-opacity:1;fill-rule:nonzero;stroke:none" />
              <path
                 d="M 1141.908,798.264 C 1146.208,795.249 1151.498,793.716 1154.118,793.716 C 1156.343,793.716 1158.074,794.21 1158.074,795.94 C 1158.074,797.621 1156.788,798.066 1153.327,799.104 C 1147.741,800.785 1142.155,802.615 1142.155,808.893 C 1142.155,813.738 1146.604,817.593 1154.167,817.593 C 1157.777,817.593 1160.842,816.753 1163.906,815.567 L 1163.906,808.596 C 1160.447,809.98 1157.48,810.772 1154.217,810.772 C 1151.844,810.772 1150.806,810.178 1150.806,808.942 C 1150.806,807.657 1152.141,807.212 1154.86,806.322 C 1160.447,804.493 1166.774,802.367 1166.774,795.94 C 1166.774,790.7 1162.127,786.943 1154.167,786.943 C 1148.68,786.943 1144.675,788.821 1141.908,790.452 L 1141.908,798.264 z M 1123.27,811.117 C 1118.622,811.117 1117.436,807.706 1117.436,802.268 C 1117.436,796.781 1118.622,793.369 1123.27,793.369 C 1127.917,793.369 1129.104,796.781 1129.104,802.268 C 1129.104,807.706 1127.917,811.117 1123.27,811.117 M 1123.27,786.943 C 1113.036,786.943 1109.427,793.172 1109.427,802.268 C 1109.427,811.365 1113.036,817.593 1123.27,817.593 C 1133.504,817.593 1137.112,811.365 1137.112,802.268 C 1137.112,793.172 1133.504,786.943 1123.27,786.943 M 1106.61,794.16 L 1106.61,787.437 L 1086.044,787.437 L 1086.044,817.099 L 1094.054,817.099 L 1094.054,794.16 L 1106.61,794.16 z M 1055.644,798.264 C 1059.946,795.249 1065.236,793.716 1067.856,793.716 C 1070.08,793.716 1071.81,794.21 1071.81,795.94 C 1071.81,797.621 1070.525,798.066 1067.064,799.104 C 1061.478,800.785 1055.892,802.615 1055.892,808.893 C 1055.892,813.738 1060.34,817.593 1067.905,817.593 C 1071.514,817.593 1074.579,816.753 1077.644,815.567 L 1077.644,808.596 C 1074.183,809.98 1071.218,810.772 1067.954,810.772 C 1065.582,810.772 1064.543,810.178 1064.543,808.942 C 1064.543,807.657 1065.878,807.212 1068.597,806.322 C 1074.183,804.493 1080.511,802.367 1080.511,795.94 C 1080.511,790.7 1075.864,786.943 1067.905,786.943 C 1062.418,786.943 1058.413,788.821 1055.644,790.452 L 1055.644,798.264 z M 1026.97,798.264 C 1031.271,795.249 1036.561,793.716 1039.182,793.716 C 1041.406,793.716 1043.136,794.21 1043.136,795.94 C 1043.136,797.621 1041.851,798.066 1038.39,799.104 C 1032.804,800.785 1027.218,802.615 1027.218,808.893 C 1027.218,813.738 1031.667,817.593 1039.231,817.593 C 1042.84,817.593 1045.905,816.753 1048.97,815.567 L 1048.97,808.596 C 1045.509,809.98 1042.543,810.772 1039.281,810.772 C 1036.907,810.772 1035.869,810.178 1035.869,808.942 C 1035.869,807.657 1037.204,807.212 1039.923,806.322 C 1045.509,804.493 1051.838,802.367 1051.838,795.94 C 1051.838,790.7 1047.19,786.943 1039.231,786.943 C 1033.743,786.943 1029.739,788.821 1026.97,790.452 L 1026.97,798.264 z M 1020.297,787.437 L 1012.2883,787.437 L 1012.2883,817.1 L 1020.297,817.1 L 1020.297,787.437 z M 985.445,810.673 L 990.29,810.673 L 995.876,800.884 L 997.754,817.099 L 1005.418,817.099 L 1001.759,787.437 L 995.53,787.437 L 987.867,800.835 L 980.204,787.437 L 973.975,787.437 L 970.317,817.099 L 977.98,817.099 L 979.858,800.884 L 985.445,810.673 z M 941.447,798.264 C 945.748,795.249 951.037,793.716 953.658,793.716 C 955.883,793.716 957.613,794.21 957.613,795.94 C 957.613,797.621 956.327,798.066 952.867,799.104 C 947.28,800.785 941.694,802.615 941.694,808.893 C 941.694,813.738 946.143,817.593 953.707,817.593 C 957.316,817.593 960.381,816.753 963.446,815.567 L 963.446,808.596 C 959.986,809.98 957.019,810.772 953.757,810.772 C 951.383,810.772 950.345,810.178 950.345,808.942 C 950.345,807.657 951.68,807.212 954.399,806.322 C 959.986,804.493 966.314,802.367 966.314,795.94 C 966.314,790.7 961.667,786.943 953.707,786.943 C 948.219,786.943 944.215,788.821 941.447,790.452 L 941.447,798.264 z M 1169.628,804.422 L 1169.628,819.487 L 1165.972,820.903 C 1163.071,822.026 1159.107,823.316 1154.167,823.316 C 1149.291,823.316 1145.033,822.034 1141.854,819.609 C 1140.65,818.691 1139.637,817.635 1138.821,816.475 C 1135.504,820.92 1130.215,823.316 1123.27,823.316 C 1110.836,823.316 1103.705,815.644 1103.705,802.268 C 1103.705,801.451 1103.732,800.656 1103.786,799.882 L 1099.776,799.882 L 1099.776,822.822 L 1080.322,822.822 L 1080.322,820.665 L 1079.71,820.903 C 1076.808,822.026 1072.844,823.316 1067.905,823.316 C 1063.028,823.316 1058.77,822.034 1055.592,819.609 C 1055.277,819.37 1055.448,819.498 1055.154,819.266 L 1054.667,819.466 L 1051.036,820.903 C 1048.134,822.026 1044.169,823.316 1039.231,823.316 C 1034.354,823.316 1030.096,822.034 1026.917,819.609 C 1026.604,819.37 1026.307,819.119 1026.019,818.861 L 1026.019,822.822 L 992.657,822.822 L 992.07,817.758 L 991.912,816.395 L 983.822,816.395 L 983.664,817.758 L 983.077,822.822 L 963.846,822.822 L 964.015,821.456 C 961.297,822.41 957.845,823.316 953.707,823.316 C 948.831,823.316 944.573,822.034 941.394,819.609 C 937.951,816.983 935.762,813.057 935.704,808.891 L 935.704,808.729 L 935.724,787.183 L 938.542,785.523 C 943.455,782.628 948.415,781.221 953.707,781.221 C 960.557,781.221 965.356,783.387 968.322,786.534 L 968.916,781.715 L 983.524,781.715 L 987.867,789.309 L 992.211,781.715 L 1026.019,781.715 L 1026.019,784.453 C 1030.297,782.283 1034.639,781.221 1039.231,781.221 C 1045.306,781.221 1049.767,782.925 1052.768,785.506 C 1057.671,782.623 1062.622,781.221 1067.905,781.221 C 1073.266,781.221 1077.369,782.55 1080.322,784.634 L 1080.322,781.715 L 1112.332,781.715 L 1112.332,783.904 C 1115.292,782.144 1118.961,781.221 1123.27,781.221 C 1129.318,781.221 1134.108,783.041 1137.436,786.446 L 1139.002,785.523 C 1143.913,782.628 1148.874,781.221 1154.167,781.221 C 1166.828,781.221 1172.496,788.614 1172.496,795.94 C 1172.496,799.533 1171.359,802.281 1169.628,804.422"
                 id="path2536"
                 style="fill:#e2001a;fill-opacity:1;fill-rule:nonzero;stroke:none" />
            </g>
          </g>
        </g>
      </g>
    </g>
  </g>
</svg>
