<?xml version="1.0" encoding="UTF-8"?>
<svg width="170px" height="170px" viewBox="0 0 170 170" version="1.1" xmlns="http://www.w3.org/2000/svg" xmlns:xlink="http://www.w3.org/1999/xlink">
    <!-- Generator: Sketch 52.6 (67491) - http://www.bohemiancoding.com/sketch -->
    <title>logo-trafo-header</title>
    <desc>Created with Sketch.</desc>
    <g id="Symbols" stroke="none" stroke-width="1" fill="none" fill-rule="evenodd">
        <g id="trafo/main/header" transform="translate(-39.000000, -40.000000)">
            <g id="logo-trafo-header" transform="translate(39.000000, 40.000000)">
                <polygon id="Fill-1" fill="#82888F" points="-9.99200722e-15 170 170 170 170 -8.8817842e-16 -9.99200722e-15 -8.8817842e-16"></polygon>
                <polyline id="Fill-4" fill="#FFFFFE" points="28.0470435 66.0856522 20.796913 66.0856522 20.796913 46.625087 12.3028261 46.625087 12.3028261 40.0556957 36.703 40.0556957 36.703 46.5600435 28.0470435 46.5600435 28.0470435 66.0856522"></polyline>
                <path d="M48.3738696,52.1759565 L49.1307391,52.1759565 C51.6822174,52.1759565 57.0571739,52.0081739 57.0571739,49.1773043 C57.0571739,46.3471739 51.6822174,46.4366087 49.1307391,46.4366087 L48.3738696,46.4366087 L48.3738696,52.1759565 Z M65.5571739,66.0856522 L55.8287391,66.0856522 L50.4478696,58.3011304 L48.3842174,58.3011304 L48.3738696,66.0856522 L40.5590435,66.0856522 L40.5590435,40.0556957 L53.2528696,40.0556957 C59.1932609,40.0556957 64.9562609,43.3293043 64.9562609,48.8875652 C64.9562609,52.110913 64.0212609,55.6897826 58.9271739,57.1732174 L65.5571739,66.0856522 Z" id="Fill-6" fill="#FFFFFE"></path>
                <path d="M81.9961739,47.8091739 L81.9193043,47.8091739 L78.817913,55.8043478 L85.0583913,55.8043478 L81.9961739,47.8091739 Z M76.7505652,61.2724348 L74.6625217,66.0856522 L66.6991304,66.0856522 L77.8991739,39.7652174 L86.0924348,39.7652174 L97.126913,66.1174348 L89.125087,66.1174348 L87.0880435,61.2724348 L76.7505652,61.2724348 Z" id="Fill-8" fill="#FFFFFE"></path>
                <polyline id="Fill-10" fill="#FFFFFE" points="107.89013 46.6568696 107.89013 51.2003043 121.275783 51.2003043 121.275783 57.0926522 107.889391 57.0926522 107.889391 66.0856522 100.317 66.0856522 100.317 40.0556957 122.519739 40.0556957 122.519739 46.6568696 107.89013 46.6568696"></polyline>
                <path d="M132.698304,52.8663043 C132.698304,57.2774348 136.135261,60.5015217 140.323174,60.5015217 C144.512565,60.5015217 147.948043,57.2774348 147.948043,52.8663043 C147.948043,49.3369565 144.512565,46.1136087 140.323174,46.1136087 C136.135261,46.1136087 132.698304,49.3369565 132.698304,52.8663043 Z M155.251391,52.8323043 C155.251391,61.1127826 148.986522,66.9489565 140.323174,66.9489565 C131.659826,66.9489565 125.395696,61.1127826 125.395696,52.8323043 C125.395696,45.0958261 132.555652,39.6661739 140.323174,39.6661739 C148.091435,39.6661739 155.251391,45.0958261 155.251391,52.8323043 Z" id="Fill-12" fill="#FFFFFE"></path>
                <polyline id="Fill-14" fill="#FFFFFE" points="52.9675652 79.8504783 52.9675652 71.0215652 54.2669565 71.0215652 54.2669565 90.3128696 52.9675652 90.3128696 52.9675652 81.3228261 40.562 81.3228261 40.562 90.3128696 39.2618696 90.3128696 39.2618696 71.0215652 40.562 71.0215652 40.562 79.8504783 52.9675652 79.8504783"></polyline>
                <polygon id="Stroke-15" stroke="#FFFFFE" points="52.9675652 79.8504783 52.9675652 71.0215652 54.2669565 71.0215652 54.2669565 90.3128696 52.9675652 90.3128696 52.9675652 81.3228261 40.562 81.3228261 40.562 90.3128696 39.2618696 90.3128696 39.2618696 71.0215652 40.562 71.0215652 40.562 79.8504783"></polygon>
                <path d="M60.1193913,80.6672174 C60.1193913,85.4264783 63.9458696,89.4170435 68.5868696,89.4170435 C73.2034783,89.4170435 77.055087,85.4006087 77.055087,80.6672174 C77.055087,75.9086957 73.2034783,71.9173913 68.5868696,71.9173913 C63.9458696,71.9173913 60.1193913,75.9086957 60.1193913,80.6672174 Z M78.239913,80.6672174 C78.239913,86.0916957 73.8213913,90.5686087 68.5868696,90.5686087 C63.353087,90.5686087 58.9338261,86.0916957 58.9338261,80.6672174 C58.9338261,75.2434783 63.3286957,70.7658261 68.5868696,70.7658261 C73.8213913,70.7658261 78.239913,75.2434783 78.239913,80.6672174 Z" id="Fill-16" fill="#FFFFFE"></path>
                <path d="M60.1193913,80.6672174 C60.1193913,85.4264783 63.9458696,89.4170435 68.5868696,89.4170435 C73.2034783,89.4170435 77.055087,85.4006087 77.055087,80.6672174 C77.055087,75.9086957 73.2034783,71.9173913 68.5868696,71.9173913 C63.9458696,71.9173913 60.1193913,75.9086957 60.1193913,80.6672174 Z M78.239913,80.6672174 C78.239913,86.0916957 73.8213913,90.5686087 68.5868696,90.5686087 C63.353087,90.5686087 58.9338261,86.0916957 58.9338261,80.6672174 C58.9338261,75.2434783 63.3286957,70.7658261 68.5868696,70.7658261 C73.8213913,70.7658261 78.239913,75.2434783 78.239913,80.6672174 Z" id="Stroke-17" stroke="#FFFFFE"></path>
                <polyline id="Fill-18" fill="#FFFFFE" points="87.9986522 90.3128696 86.7709565 90.3128696 86.7709565 72.1731304 80.0315652 72.1731304 80.0315652 71.0215652 94.7365652 71.0215652 94.7365652 72.1731304 87.9986522 72.1731304 87.9986522 90.3128696"></polyline>
                <polygon id="Stroke-19" stroke="#FFFFFE" points="87.9986522 90.3128696 86.7709565 90.3128696 86.7709565 72.1731304 80.0315652 72.1731304 80.0315652 71.0215652 94.7365652 71.0215652 94.7365652 72.1731304 87.9986522 72.1731304"></polygon>
                <polyline id="Fill-20" fill="#FFFFFE" points="100.424174 72.1731304 100.424174 80.1749565 111.088348 80.1749565 111.088348 81.3553478 100.424174 81.3553478 100.424174 89.1613043 112.313087 89.1613043 112.313087 90.3128696 99.1957391 90.3128696 99.1957391 71.0215652 112.487522 71.0215652 112.487522 72.1731304 100.424174 72.1731304"></polyline>
                <polygon id="Stroke-21" stroke="#FFFFFE" points="100.424174 72.1731304 100.424174 80.1749565 111.088348 80.1749565 111.088348 81.3553478 100.424174 81.3553478 100.424174 89.1613043 112.313087 89.1613043 112.313087 90.3128696 99.1957391 90.3128696 99.1957391 71.0215652 112.487522 71.0215652 112.487522 72.1731304"></polygon>
                <polyline id="Fill-22" fill="#FFFFFE" points="118.117478 89.1613043 129.49713 89.1613043 129.49713 90.3128696 116.889783 90.3128696 116.889783 71.0215652 118.117478 71.0215652 118.117478 89.1613043"></polyline>
                <polygon id="Stroke-23" stroke="#FFFFFE" points="118.117478 89.1613043 129.49713 89.1613043 129.49713 90.3128696 116.889783 90.3128696 116.889783 71.0215652 118.117478 71.0215652"></polygon>
                <path d="M60.7313913,125.095609 L61.1238696,125.095609 C62.0344783,125.095609 63.5718696,125.137 63.5718696,123.981 C63.5718696,122.713391 62.05,122.839043 61.0455217,122.839043 L60.7313913,122.839043 L60.7313913,125.095609 Z M60.7313913,120.804957 L61.0773043,120.804957 C61.8925652,120.804957 62.7396087,120.680043 62.7396087,119.788652 C62.7396087,118.827783 61.7831739,118.771609 60.9516522,118.771609 L60.7313913,118.771609 L60.7313913,120.804957 Z M57.6573478,127.184391 L57.6573478,116.682087 L62.6989565,116.682087 C64.8010435,116.682087 66.0708696,117.406435 66.0708696,119.412435 C66.0708696,120.359261 65.5601304,121.125739 64.6029565,121.557391 L64.6029565,121.585478 C66.2977826,121.780609 66.6776957,122.796913 66.6776957,124.259652 C66.6776957,126.460783 64.560087,127.184391 62.3944348,127.184391 L57.6573478,127.184391 Z" id="Fill-24" fill="#FFFFFE"></path>
                <path d="M72.9854348,119.927609 L72.9573478,119.927609 L71.8294348,123.270696 L74.0993043,123.270696 L72.9854348,119.927609 Z M71.077,125.359478 L70.3526522,127.184391 L67.456,127.184391 L71.4953478,116.682087 L74.4755217,116.682087 L78.4313478,127.184391 L75.519913,127.184391 L74.8376957,125.359478 L71.077,125.359478 Z" id="Fill-26" fill="#FFFFFE"></path>
                <path d="M82.512087,124.872391 L83.1662174,124.872391 C84.903913,124.872391 86.3895652,123.981 86.3895652,121.933609 C86.3895652,120.053261 85.0672609,118.994826 83.1950435,118.994826 L82.512087,118.994826 L82.512087,124.872391 Z M79.599913,116.682087 L83.7301739,116.682087 C86.8500435,116.682087 89.4192609,118.980783 89.4192609,121.933609 C89.4192609,124.886435 86.8345217,127.184391 83.7301739,127.184391 L79.599913,127.184391 L79.599913,116.682087 Z" id="Fill-28" fill="#FFFFFE"></path>
                <polyline id="Fill-30" fill="#FFFFFE" points="93.7623913 118.994826 93.7623913 120.749522 98.6657826 120.749522 98.6657826 123.061522 93.7623913 123.061522 93.7623913 124.872391 99.1898261 124.872391 99.1898261 127.184391 91.0327826 127.184391 91.0327826 116.682087 99.0715652 116.682087 99.0715652 118.994826 93.7623913 118.994826"></polyline>
                <polyline id="Fill-32" fill="#FFFFFE" points="100.853609 116.682087 103.415435 116.682087 108.108174 123.103652 108.133304 123.103652 108.133304 116.682087 110.69587 116.682087 110.69587 127.184391 108.133304 127.184391 103.441304 120.749522 103.415435 120.749522 103.415435 127.184391 100.853609 127.184391 100.853609 116.682087"></polyline>
                <polygon id="Fill-34" fill="#FFFFFE" points="20.1368696 110 147.632435 110 147.632435 108 20.1368696 108"></polygon>
            </g>
        </g>
    </g>
</svg>