<svg width="147" height="136" viewBox="0 0 147 136" fill="none" xmlns="http://www.w3.org/2000/svg">
<path d="M146.653 85.3075L92.22 0.987326C91.7378 0.246417 90.8516 -0.124037 89.9776 0.0372898L49.2826 7.96621C48.6134 8.09766 48.0408 8.53384 47.7454 9.1433L0.214641 106.842C-0.0144228 107.314 -0.0626468 107.851 0.0820252 108.353L3.28289 119.712C3.4577 120.333 3.9098 120.847 4.50658 121.104L38.7396 135.821C39.0169 135.94 39.3062 136 39.6016 136C39.8789 136 40.1562 135.946 40.4214 135.839L71.0014 123.506L114.162 134.47C114.427 134.542 114.71 134.554 114.988 134.518L126.754 132.965C127.526 132.863 128.177 132.361 128.472 131.65L146.84 87.2793C147.105 86.634 147.039 85.8931 146.659 85.3075H146.653ZM71.3812 119.168C71.3812 119.168 71.3209 119.168 71.2908 119.162L55.2744 111.12L79.1995 72.4731L98.3444 126.022L71.3872 119.174L71.3812 119.168ZM54.1833 110.833L6.73091 115.984L4.57891 108.335L60.995 19.283L72.0202 26.7817L78.7534 71.1406L54.1833 110.833ZM72.3879 25.7301L61.3868 18.2493L61.9353 9.8842L86.3668 5.12207L72.3879 25.7301ZM51.1753 11.9815L58.1919 10.6132L60.2836 18.4345L13.9826 87.1478L51.1753 11.9815ZM39.6257 131.519L11.4327 119.401L54.3822 111.873L66.3056 120.764L39.6257 131.525V131.519ZM114.825 130.204L103.342 127.288L79.8445 71.1526L73.0871 26.6084L90.4598 6.24539L132.734 71.7321L124.542 128.926L114.825 130.21V130.204ZM130.003 117.591L136.273 77.2053L142.391 86.6878L130.003 117.597V117.591Z" fill="black"/>
</svg>
