<svg width="129" height="140" viewBox="0 0 129 140" fill="none" xmlns="http://www.w3.org/2000/svg">
<path d="M128.09 80.2536L107.253 65.4417L119.796 53.1295C120.253 52.6848 120.487 52.0539 120.439 51.417L118.744 30.1275C118.708 29.6648 118.522 29.2321 118.221 28.8836L104.38 12.9661C104.248 12.8098 104.092 12.6776 103.917 12.5635L84.8172 0.341388C84.3484 0.0409436 83.7895 -0.0672164 83.2426 0.0409436L19.8721 12.233C19.3191 12.3411 18.8263 12.6596 18.5018 13.1223L0.38733 39.267C0.116875 39.6576 -0.0213569 40.1323 0.0026835 40.607L3.86117 117.353C3.89122 118.019 4.2338 118.632 4.7747 119.011L34.104 139.609C34.4706 139.868 34.9033 140 35.3481 140C35.4022 140 35.4563 140 35.5164 139.994L109.008 134.304C109.651 134.255 110.24 133.919 110.613 133.384L123.047 115.598C123.228 115.34 123.354 115.039 123.408 114.727L128.967 82.3747C129.112 81.5575 128.769 80.7283 128.09 80.2476V80.2536ZM102.174 105.383L40.7031 71.8952L102.289 67.4787L112.073 91.4542L102.174 105.383ZM112.92 90.7271L107.295 70.7716L123.15 82.0443L112.92 90.7271ZM102.914 63.645L39.5552 71.078L31.117 25.0259L85.6166 27.4114L114.621 52.1621L102.914 63.6511V63.645ZM85.1598 26.3058L30.7023 23.9263L23.9529 15.8563L81.1511 4.85406L85.1598 26.3118V26.3058ZM114.489 31.179L115.823 47.9078L86.3077 26.6002L85.25 5.7554L101.315 16.0426L114.489 31.185V31.179ZM20.5693 17.7311L29.963 24.7255L38.5034 71.3544L6.69794 87.5845L4.36001 41.1177L20.5693 17.7311ZM6.93233 92.2173L39.0383 72.2197L101.868 106.452L105.961 129.881L23.2678 126.708L8.13435 116.079L6.93233 92.2173ZM29.6625 131.203L83.2065 132.657L35.9611 135.626L29.6625 131.197V131.203ZM119.231 113.519L109.435 127.538L102.92 106.2L113.065 91.9229L123.973 85.92L119.231 113.519Z" fill="black"/>
</svg>
