<svg width="129" height="136" viewBox="0 0 129 136" fill="none" xmlns="http://www.w3.org/2000/svg">
<path d="M108.519 66.4851L121.515 55.9415C121.993 55.5559 122.284 54.9776 122.314 54.363L123.349 32.9868C123.373 32.4867 123.222 31.9987 122.925 31.595L110.292 14.5929C110.171 14.4242 110.02 14.2796 109.856 14.153L91.6692 0.440433C91.2275 0.109065 90.683 -0.0475815 90.1324 0.0126672L26.6885 6.38698C26.144 6.4412 25.6357 6.70027 25.2788 7.10996L25.3151 7.06779L2.11202 31.9505C1.749 32.3421 1.54329 32.8482 1.53119 33.3784L0.00045463 104.442C-0.0116461 105.032 0.218267 105.599 0.63574 106.02L30.0041 135.361C30.4155 135.771 30.9661 136 31.5469 136C31.5711 136 31.5893 136 31.6135 136L104.593 133.789C105.174 133.771 105.724 133.524 106.117 133.102L120.281 117.956C120.529 117.69 120.705 117.365 120.795 117.01L128.933 85.114C129.139 84.3066 128.861 83.4511 128.219 82.9209L108.513 66.4971L108.519 66.4851ZM122.871 84.1018L110.51 90.1387L107.848 71.5761L122.871 84.0957V84.1018ZM100.146 105.972L40.1929 71.6243L103.461 68.7082L109.518 90.8255L100.146 105.972ZM104.236 64.3703L38.9344 70.7205L35.038 19.8164L87.5307 25.9919L116.863 54.128L104.23 64.3703H104.236ZM87.2464 24.8653L34.7657 18.6898L30.3308 10.3694L88.0813 4.56747L87.2464 24.8592V24.8653ZM118.962 33.5591L118.17 49.9528L88.3173 25.2629L91.766 5.95921L106.977 17.4306L118.962 33.5591ZM26.9063 11.731L33.9126 19.3947L37.8574 70.9133L4.76812 85.3549L5.86929 34.3002L26.9063 11.731ZM4.66527 90.0061L38.402 71.8472L99.8371 107.044L102.082 129.083L17.9095 117.136L4.37485 103.61L4.66527 90.0061ZM22.9554 122.179L82.4545 130.12L32.4182 131.638L22.9554 122.179ZM116.718 115.401L105.579 127.306L100.902 106.822L110.462 91.3738L123.796 87.6625L116.718 115.401Z" fill="black"/>
</svg>
