<svg width="140" height="141" viewBox="0 0 140 141" fill="none" xmlns="http://www.w3.org/2000/svg">
<path d="M129.987 35.1794C129.897 34.7342 129.668 34.3251 129.331 34.0182L108.914 15.2463C108.715 15.0598 108.48 14.9154 108.221 14.8191L69.9412 0.14455C69.4594 -0.041966 68.9233 -0.0479827 68.4355 0.1265L29.9565 13.8504C29.5891 13.9828 29.2639 14.2114 29.011 14.5123L3.47473 45.4739C3.19166 45.8228 3.017 46.244 2.98689 46.6953L0.00565809 87.8611C-0.0244554 88.2762 0.065885 88.6914 0.270657 89.0584L16.0561 117.794C16.2428 118.131 16.5139 118.414 16.8391 118.606L53.6618 140.693C53.9991 140.898 54.3846 141 54.776 141C54.8363 141 54.8965 141 54.9507 140.994L99.085 137.378C99.4343 137.348 99.7656 137.24 100.061 137.053L117.129 126.313C117.442 126.115 117.701 125.838 117.876 125.513L139.738 85.3521C139.985 84.9069 140.057 84.3835 139.955 83.8841L129.981 35.1674L129.987 35.1794ZM122.561 33.6753L91.659 29.1267L73.6752 6.21533L106.288 18.7119L122.567 33.6753H122.561ZM33.1124 17.322L67.7248 4.97591L90.858 29.8306L104.517 113.221L16.7668 77.4884L33.1124 17.322ZM27.71 22.8934L15.6647 77.4944L4.57688 84.7926L7.25698 47.694L27.71 22.8934ZM5.27552 89.1667L16.2368 78.439L104.915 114.545L112.624 124.033L98.5189 132.908L19.3867 114.852L5.27552 89.1546V89.1667ZM30.6009 121.813L85.564 134.147L55.3 136.626L30.607 121.813H30.6009ZM115.28 121.241L105.716 113.811L92.0324 30.2999L126.187 38.2178L135.558 83.9864L115.28 121.241Z" fill="black"/>
</svg>
