<svg width="125" height="140" viewBox="0 0 125 140" fill="none" xmlns="http://www.w3.org/2000/svg">
<path d="M123.436 3.88197L110.254 0.083964C109.795 -0.0476203 109.3 -0.0236959 108.853 0.149756L82.7844 10.3176L23.2744 0.030134C22.6525 -0.0715448 22.0003 0.0959262 21.5112 0.49666L0.780807 17.5966C0.237337 18.0512 -0.0525141 18.7331 0.00787151 19.4388L7.07902 99.5139C7.12733 100.058 7.38095 100.567 7.79157 100.931L44.7596 133.72C45.0314 133.959 45.3574 134.133 45.7137 134.21L70.5624 139.946C70.7254 139.982 70.8885 140 71.0575 140C71.2931 140 71.5225 139.964 71.7459 139.886L106.377 128.415C106.975 128.217 107.458 127.769 107.7 127.188L124.783 85.9487C124.891 85.6915 124.946 85.4164 124.946 85.1353L125 5.94545C125 4.98847 124.36 4.14514 123.436 3.87599V3.88197ZM109.753 4.42027L118.877 7.04597L96.027 77.3001L83.5755 77.4735L84.9764 14.0857L109.753 4.42027ZM72.386 135.143L55.0071 114.903L83.3037 78.5621L95.9485 78.3886L102.633 125.125L72.386 135.143ZM7.26622 52.2332L24.3372 4.58176L80.7011 14.325L82.5006 77.8264L54.1858 114.197L10.2312 85.8052L7.26622 52.2392V52.2332ZM18.2624 8.78049L6.40271 42.4182L4.44017 20.1865L18.2624 8.78049ZM11.3362 98.2937L10.6901 90.9489L53.9564 115.298L67.0661 134.719L47.2536 130.143L11.3422 98.2937H11.3362ZM105.912 120.173L96.9509 77.8802L120.652 13.7328L120.604 84.7106L105.912 120.173Z" fill="black"/>
</svg>
